<svg xmlns="http://www.w3.org/2000/svg" width="31" height="30" viewBox="0 0 31 30" fill="none">
<path d="M15.6494 27.5C15.3577 27.5 15.1077 27.4167 14.8994 27.25C14.6911 27.0833 14.5348 26.8646 14.4307 26.5938C14.0348 25.4271 13.5348 24.3333 12.9307 23.3125C12.3473 22.2917 11.5244 21.0938 10.4619 19.7188C9.39941 18.3438 8.53483 17.0312 7.86816 15.7812C7.22233 14.5312 6.89941 13.0208 6.89941 11.25C6.89941 8.8125 7.74316 6.75 9.43066 5.0625C11.139 3.35417 13.2119 2.5 15.6494 2.5C18.0869 2.5 20.1494 3.35417 21.8369 5.0625C23.5452 6.75 24.3994 8.8125 24.3994 11.25C24.3994 13.1458 24.0348 14.7292 23.3057 16C22.5973 17.25 21.7744 18.4896 20.8369 19.7188C19.7119 21.2188 18.8577 22.4688 18.2744 23.4688C17.7119 24.4479 17.2432 25.4896 16.8682 26.5938C16.764 26.8854 16.5973 27.1146 16.3682 27.2812C16.1598 27.4271 15.9202 27.5 15.6494 27.5ZM15.6494 23.0312C16.0036 22.3229 16.3994 21.625 16.8369 20.9375C17.2952 20.25 17.9619 19.3333 18.8369 18.1875C19.7327 17.0208 20.4619 15.9479 21.0244 14.9687C21.6077 13.9687 21.8994 12.7292 21.8994 11.25C21.8994 9.52083 21.2848 8.05208 20.0557 6.84375C18.8473 5.61458 17.3786 5 15.6494 5C13.9202 5 12.4411 5.61458 11.2119 6.84375C10.0036 8.05208 9.39941 9.52083 9.39941 11.25C9.39941 12.7292 9.68066 13.9687 10.2432 14.9687C10.8265 15.9479 11.5661 17.0208 12.4619 18.1875C13.3369 19.3333 13.9932 20.25 14.4307 20.9375C14.889 21.625 15.2952 22.3229 15.6494 23.0312ZM15.6494 14.375C16.5244 14.375 17.264 14.0729 17.8682 13.4688C18.4723 12.8646 18.7744 12.125 18.7744 11.25C18.7744 10.375 18.4723 9.63542 17.8682 9.03125C17.264 8.42708 16.5244 8.125 15.6494 8.125C14.7744 8.125 14.0348 8.42708 13.4307 9.03125C12.8265 9.63542 12.5244 10.375 12.5244 11.25C12.5244 12.125 12.8265 12.8646 13.4307 13.4688C14.0348 14.0729 14.7744 14.375 15.6494 14.375Z" fill="#FEDC78" stroke="#FEDC78"/>
</svg>