<svg xmlns="http://www.w3.org/2000/svg" width="26" height="19" viewBox="0 0 26 19" fill="none">
  <path d="M21.3333 0.5H4.66667C4.11949 0.5 3.57768 0.605815 3.07215 0.811402C2.56663 1.01699 2.1073 1.31832 1.72039 1.6982C0.938987 2.46539 0.5 3.50593 0.5 4.59091V14.4091C0.499921 15.4856 0.932038 16.5188 1.70266 17.2846C2.47328 18.0504 3.52029 18.4871 4.61667 18.5H21.3333C22.4384 18.5 23.4982 18.069 24.2796 17.3018C25.061 16.5346 25.5 15.4941 25.5 14.4091V4.59091C25.5 3.50593 25.061 2.46539 24.2796 1.6982C23.4982 0.931005 22.4384 0.5 21.3333 0.5ZM20.5 16.8636H5.5V14.4091C5.5 14.1921 5.5878 13.984 5.74408 13.8305C5.90036 13.6771 6.11232 13.5909 6.33333 13.5909H19.6667C19.8877 13.5909 20.0996 13.6771 20.2559 13.8305C20.4122 13.984 20.5 14.1921 20.5 14.4091V16.8636ZM23.8333 14.4091C23.8336 14.9169 23.6735 15.4123 23.375 15.827C23.0765 16.2417 22.6543 16.5553 22.1667 16.7245V14.4091C22.1667 13.7581 21.9033 13.1338 21.4344 12.6735C20.9656 12.2131 20.3297 11.9545 19.6667 11.9545H6.33333C5.67029 11.9545 5.03441 12.2131 4.56557 12.6735C4.09673 13.1338 3.83333 13.7581 3.83333 14.4091V16.7082C3.34838 16.5399 2.92811 16.2288 2.62984 15.8173C2.33157 15.4059 2.16983 14.9141 2.16667 14.4091V4.59091C2.16667 3.93992 2.43006 3.3156 2.8989 2.85528C3.36774 2.39497 4.00363 2.13636 4.66667 2.13636H21.3333C21.9964 2.13636 22.6323 2.39497 23.1011 2.85528C23.5699 3.3156 23.8333 3.93992 23.8333 4.59091V14.4091Z" fill="#DCC69B" stroke="#DCC69B"/>
  <path d="M25 4.5H21C20.7348 4.5 20.4804 4.60536 20.2929 4.79289C20.1054 4.98043 20 5.23478 20 5.5C20 5.76522 20.1054 6.01957 20.2929 6.20711C20.4804 6.39464 20.7348 6.5 21 6.5H25C25.2652 6.5 25.5196 6.39464 25.7071 6.20711C25.8946 6.01957 26 5.76522 26 5.5C26 5.23478 25.8946 4.98043 25.7071 4.79289C25.5196 4.60536 25.2652 4.5 25 4.5Z" fill="#DCC69B"/>
  <path d="M25 4.5H21C20.7348 4.5 20.4804 4.60536 20.2929 4.79289C20.1054 4.98043 20 5.23478 20 5.5C20 5.76522 20.1054 6.01957 20.2929 6.20711C20.4804 6.39464 20.7348 6.5 21 6.5H25C25.2652 6.5 25.5196 6.39464 25.7071 6.20711C25.8946 6.01957 26 5.76522 26 5.5C26 5.23478 25.8946 4.98043 25.7071 4.79289C25.5196 4.60536 25.2652 4.5 25 4.5Z" stroke="#DCC69B"/>
</svg>