<svg xmlns="http://www.w3.org/2000/svg" width="24" height="23" viewBox="0 0 24 23" fill="none">
  <path d="M10.8125 3.59485C10.8125 1.67089 9.14213 0 7.21875 0C5.29537 0 3.625 1.67089 3.625 3.59485C3.625 5.51881 5.29537 7.1897 7.21875 7.1897C9.14213 7.1897 10.8125 5.51881 10.8125 3.59485ZM13.3281 17.2553C13.3281 11.5035 10.3439 8.62764 7.03906 8.62764C3.73425 8.62764 0.75 11.5035 0.75 17.2553C0.75 21.1952 13.3281 21.1952 13.3281 17.2553ZM17.6406 9.98649C19.564 9.98649 21.2344 8.31561 21.2344 6.39164C21.2344 4.46768 19.564 2.79679 17.6406 2.79679C15.7172 2.79679 14.0469 4.46768 14.0469 6.39164C14.0469 8.31561 15.7172 9.98649 17.6406 9.98649ZM17.4609 11.4244C16.4676 11.4244 15.516 11.7163 14.6535 12.2369C15.1753 13.6403 15.4844 15.304 15.4844 17.2553C15.4844 19.1922 14.1935 20.7006 11.9783 21.5633C14.7254 23.8899 23.75 23.3938 23.75 20.0521C23.75 14.3003 20.7658 11.4244 17.4609 11.4244Z" fill="#DCC69B"/>
</svg>