<svg xmlns="http://www.w3.org/2000/svg" width="31" height="30" viewBox="0 0 31 30" fill="none">
  <path d="M28.1492 21.15V24.9C28.1506 25.2481 28.0793 25.5927 27.9398 25.9117C27.8004 26.2307 27.5958 26.517 27.3393 26.7523C27.0828 26.9877 26.7799 27.1669 26.4501 27.2784C26.1204 27.3899 25.7709 27.4313 25.4242 27.4C21.5778 26.982 17.883 25.6677 14.6367 23.5625C11.6165 21.6433 9.05588 19.0827 7.13671 16.0625C5.02418 12.8015 3.70951 9.08874 3.29921 5.225C3.26797 4.87933 3.30905 4.53095 3.41983 4.20203C3.53062 3.87311 3.70867 3.57086 3.94267 3.31453C4.17666 3.05819 4.46146 2.85339 4.77895 2.71315C5.09643 2.57292 5.43963 2.50033 5.78671 2.5H9.53671C10.1433 2.49403 10.7314 2.70885 11.1914 3.10441C11.6514 3.49998 11.9518 4.04931 12.0367 4.65C12.195 5.85008 12.4885 7.02841 12.9117 8.1625C13.0799 8.6099 13.1163 9.09614 13.0166 9.5636C12.9169 10.0311 12.6853 10.4601 12.3492 10.8L10.7617 12.3875C12.5412 15.5169 15.1323 18.1081 18.2617 19.8875L19.8492 18.3C20.1891 17.9639 20.6182 17.7323 21.0856 17.6326C21.5531 17.5329 22.0393 17.5693 22.4867 17.7375C23.6208 18.1607 24.7991 18.4542 25.9992 18.6125C26.6064 18.6982 27.161 19.004 27.5574 19.4719C27.9538 19.9397 28.1644 20.537 28.1492 21.15Z" stroke="#FEDC78" stroke-width="3" stroke-linecap="round" stroke-linejoin="round"/>
</svg>